<svg width="16" height="16" viewBox="0 0 15 15" fill="none" xmlns="http://www.w3.org/2000/svg">
<path d="M0.46967 13.1982C0.176777 13.4911 0.176777 13.966 0.46967 14.2588C0.762563 14.5517 1.23744 14.5517 1.53033 14.2588L0.46967 13.1982ZM14.4779 1.00059C14.4779 0.586381 14.1421 0.250594 13.7279 0.250594H6.97792C6.56371 0.250594 6.22792 0.586381 6.22792 1.00059C6.22792 1.41481 6.56371 1.75059 6.97792 1.75059H12.9779V7.75059C12.9779 8.16481 13.3137 8.50059 13.7279 8.50059C14.1421 8.50059 14.4779 8.16481 14.4779 7.75059V1.00059ZM1.53033 14.2588L14.2583 1.53092L13.1976 0.470264L0.46967 13.1982L1.53033 14.2588Z" fill="#1E2534"/>
</svg>
