<svg width="28" height="28" viewBox="0 0 28 28" fill="none" xmlns="http://www.w3.org/2000/svg">
<path fill-rule="evenodd" clip-rule="evenodd" d="M21.825 6.17472C22.2806 6.63033 22.2806 7.36902 21.825 7.82463L7.825 21.8246C7.36939 22.2802 6.63069 22.2802 6.17508 21.8246C5.71947 21.369 5.71947 20.6303 6.17508 20.1747L20.1751 6.17472C20.6307 5.7191 21.3694 5.7191 21.825 6.17472Z" fill="#1E2535"/>
<path fill-rule="evenodd" clip-rule="evenodd" d="M6.17508 6.17472C6.63069 5.7191 7.36939 5.7191 7.825 6.17472L21.825 20.1747C22.2806 20.6303 22.2806 21.369 21.825 21.8246C21.3694 22.2802 20.6307 22.2802 20.1751 21.8246L6.17508 7.82463C5.71947 7.36902 5.71947 6.63033 6.17508 6.17472Z" fill="#1E2535"/>
</svg>
