<svg width="28" height="28" viewBox="0 0 32 32" fill="none" xmlns="http://www.w3.org/2000/svg">
<path fill-rule="evenodd" clip-rule="evenodd" d="M15.6756 0.217713C15.9262 0.0750867 16.2106 0 16.5 0C16.7894 0 17.0738 0.0750867 17.3244 0.217713L30.1756 7.53036C30.4262 7.67299 30.6344 7.87812 30.7791 8.12515C30.9238 8.37218 31 8.6524 31 8.93764V21.686C31 22.5418 30.7714 23.3824 30.3373 24.1235C29.9031 24.8646 29.2787 25.48 28.5267 25.9079L18.9733 31.3469C18.2213 31.7747 17.3683 32 16.5 32C15.6317 32 14.7787 31.7747 14.0267 31.3469L4.47328 25.9095C3.72132 25.4816 3.09689 24.8662 2.66274 24.1251C2.22859 23.3841 2.00002 22.5434 2 21.6877V8.93764C2.00001 8.6524 2.0762 8.37218 2.22091 8.12515C2.36563 7.87812 2.57377 7.67299 2.82443 7.53036L15.6756 0.217713ZM16.5 6.50009C16.9373 6.50009 17.3567 6.6713 17.6659 6.97605C17.9751 7.28081 18.1488 7.69414 18.1488 8.12513V15.3127L24.464 18.9056C24.653 19.0115 24.8189 19.1533 24.9521 19.3226C25.0854 19.492 25.1833 19.6857 25.2402 19.8925C25.2972 20.0993 25.3121 20.3152 25.2841 20.5277C25.2561 20.7402 25.1857 20.9452 25.0769 21.1308C24.9682 21.3164 24.8233 21.479 24.6506 21.6091C24.4778 21.7393 24.2807 21.8345 24.0704 21.8893C23.8602 21.9441 23.6411 21.9574 23.4256 21.9283C23.2102 21.8993 23.0027 21.8285 22.8151 21.7202L16.5 18.1272L10.1849 21.7202C9.99731 21.8285 9.78982 21.8993 9.57437 21.9283C9.35892 21.9574 9.13978 21.9441 8.92955 21.8893C8.71932 21.8345 8.52217 21.7393 8.34943 21.6091C8.17669 21.479 8.03179 21.3164 7.92306 21.1308C7.81434 20.9452 7.74393 20.7402 7.7159 20.5277C7.68787 20.3152 7.70278 20.0993 7.75975 19.8925C7.81673 19.6857 7.91465 19.492 8.04788 19.3226C8.18111 19.1533 8.34701 19.0115 8.53605 18.9056L14.8511 15.3127V8.12513C14.8511 7.69414 15.0249 7.28081 15.3341 6.97605C15.6433 6.6713 16.0627 6.50009 16.5 6.50009Z" fill="#4741A6"/>
</svg>
